{"glyphs":{":":{"x_min":0,"x_max":316,"ha":316,"o":"m 110 0 l 110 96 l 206 96 l 206 0 z m 110 434 l 110 530 l 206 530 l 206 434 z"},"$":{"x_min":0,"x_max":632,"ha":632,"o":"m 298 -60 l 298 0 q 212 0 105 41 l 105 124 q 216 72 298 72 l 298 332 q 199 392 163 438 q 126 485 126 549 q 126 622 174 669 q 221 717 298 723 l 298 783 l 346 783 l 346 723 q 417 723 503 690 l 503 611 q 409 652 346 657 l 346 399 q 373 383 386 375 q 461 330 488 294 q 515 257 515 202 q 515 125 470 71 q 424 17 346 0 l 346 -60 z m 346 78 q 431 108 431 188 q 431 223 415 245 q 398 267 346 303 z m 298 431 l 298 654 q 211 626 211 551 q 211 514 229 489 q 247 464 298 431 z"},"?":{"x_min":0,"x_max":422,"ha":422,"o":"m 122 0 l 122 96 l 218 96 l 218 0 z m 122 193 l 122 219 q 122 274 137 310 q 152 346 194 395 l 225 430 q 301 518 301 574 q 301 618 267 643 q 233 668 176 668 q 102 668 18 632 l 18 714 q 108 741 188 741 q 287 741 345 697 q 404 652 404 576 q 404 533 387 502 q 370 471 322 425 l 292 397 q 247 354 232 325 q 218 296 218 247 l 218 193 z"},"<":{"x_min":0,"x_max":795,"ha":795,"o":"m 687 0 l 108 289 l 687 578 l 687 524 l 217 289 l 687 54 z"},"'":{"x_min":0,"x_max":229,"ha":229,"o":"m 78 506 l 54 771 l 175 771 l 150 506 z"},"=":{"x_min":0,"x_max":795,"ha":795,"o":"m 108 175 l 108 223 l 687 223 l 687 175 z m 108 355 l 108 404 l 687 404 l 687 355 z"},"a":{"x_min":0,"x_max":552,"ha":552,"o":"m 370 67 q 283 -12 203 -12 q 137 -12 94 29 q 50 70 50 133 q 50 220 123 267 q 196 313 333 313 l 355 313 l 355 377 q 355 470 259 470 q 185 470 96 423 l 96 502 q 193 542 279 542 q 368 542 410 502 q 452 461 452 377 l 452 137 q 452 55 502 55 q 509 55 521 57 l 528 3 q 495 -12 456 -12 q 388 -12 370 67 z m 355 120 l 355 257 l 325 258 q 245 258 196 228 q 146 198 146 149 q 146 114 171 90 q 195 66 230 66 q 291 66 355 120 z"},"L":{"x_min":0,"x_max":533,"ha":533,"o":"m 93 0 l 93 723 l 196 723 l 196 77 l 521 77 l 521 0 z"},"3":{"x_min":0,"x_max":632,"ha":632,"o":"m 102 5 l 102 95 q 205 54 264 54 q 333 54 377 94 q 420 134 420 199 q 420 351 207 351 l 168 351 l 168 416 l 202 417 q 402 417 402 558 q 402 668 270 668 q 198 668 111 628 l 111 712 q 197 741 276 741 q 384 741 441 698 q 499 655 499 573 q 499 446 348 392 q 523 351 523 200 q 523 98 456 40 q 388 -18 271 -18 q 204 -18 102 5 z"},";":{"x_min":0,"x_max":316,"ha":316,"o":"m 110 -157 l 110 -121 q 145 -103 145 -11 l 145 0 l 110 0 l 110 96 l 206 96 l 206 15 q 206 -133 110 -157 z m 110 434 l 110 530 l 206 530 l 206 434 z"},"J":{"x_min":0,"x_max":311,"ha":311,"o":"m -90 -134 l -90 -43 q -31 -62 15 -62 q 72 -62 95 -29 q 119 5 119 88 l 119 723 l 221 723 l 221 91 q 221 -145 -2 -145 q -36 -145 -90 -134 z"},"V":{"x_min":0,"x_max":654,"ha":654,"o":"m 291 0 l 18 723 l 120 723 l 344 131 l 560 723 l 649 723 l 387 0 z"},"\"":{"x_min":0,"x_max":374,"ha":374,"o":"m 66 530 l 54 771 l 150 771 l 139 530 z m 235 530 l 223 771 l 319 771 l 307 530 z"},"7":{"x_min":0,"x_max":632,"ha":632,"o":"m 150 0 q 165 84 191 146 q 217 208 283 315 l 480 632 l 108 632 l 108 723 l 572 723 l 572 632 q 294 223 261 0 z"},"S":{"x_min":0,"x_max":539,"ha":539,"o":"m 49 14 l 49 115 q 171 59 250 59 q 310 59 347 91 q 384 123 384 174 q 384 216 360 246 q 335 276 271 312 l 221 341 q 128 394 91 441 q 53 487 53 549 q 53 633 113 687 q 174 741 268 741 q 351 741 444 713 l 444 619 q 330 664 273 664 q 220 664 186 636 q 151 607 151 564 q 151 528 176 500 q 202 473 269 434 l 321 405 q 415 352 452 304 q 489 257 489 190 q 489 96 419 39 q 350 -18 235 -18 q 162 -18 49 14 z"},"}":{"x_min":0,"x_max":325,"ha":325,"o":"m 313 277 l 289 277 q 215 277 215 198 q 215 165 223 130 l 232 87 q 241 46 241 5 q 241 -60 195 -100 q 148 -140 66 -145 l 66 -72 l 80 -72 q 113 -72 135 -55 q 157 -38 157 -12 q 157 0 151 35 l 143 84 q 137 116 137 162 q 137 252 208 313 q 137 374 137 466 q 137 511 143 542 l 151 592 q 157 626 157 639 q 157 664 135 681 q 113 699 80 699 l 66 699 l 66 771 q 148 766 195 726 q 241 686 241 621 q 241 581 232 539 l 223 497 q 215 461 215 427 q 215 350 289 350 l 313 350 z"},"Z":{"x_min":0,"x_max":604,"ha":604,"o":"m 46 0 l 46 82 l 435 646 l 70 646 l 70 723 l 558 723 l 558 646 l 169 82 l 558 82 l 558 0 z"},"x":{"x_min":0,"x_max":613,"ha":613,"o":"m 43 0 l 245 274 l 49 530 l 163 530 l 318 326 l 458 530 l 552 530 l 368 261 l 568 0 l 454 0 l 294 210 l 140 0 z"},")":{"x_min":0,"x_max":325,"ha":325,"o":"m 36 705 l 36 771 q 142 699 203 576 q 265 453 265 313 q 265 174 203 51 q 142 -73 36 -145 l 36 -78 q 108 0 138 90 q 168 180 168 313 q 168 447 138 537 q 108 627 36 705 z"},"&":{"x_min":0,"x_max":697,"ha":697,"o":"m 518 0 l 482 43 q 402 -18 295 -18 q 182 -18 109 48 q 36 113 36 215 q 36 382 212 441 q 164 530 164 588 q 164 652 214 697 q 265 741 338 741 q 409 741 454 699 q 500 658 500 595 q 500 486 341 406 q 414 277 511 166 q 555 230 555 349 l 555 384 l 650 384 q 650 224 555 108 q 599 52 655 0 z m 440 99 q 338 225 245 384 q 132 339 132 238 q 132 162 184 108 q 236 54 311 54 q 379 54 440 99 z m 306 467 q 410 515 410 593 q 410 627 389 648 q 368 668 334 668 q 301 668 281 648 q 260 627 260 593 q 260 543 306 467 z"},"_":{"x_min":0,"x_max":500,"ha":500,"o":"m 42 -72 l 42 0 l 458 0 l 458 -72 z"},"v":{"x_min":0,"x_max":518,"ha":518,"o":"m 206 0 l 9 530 l 105 530 l 259 118 l 422 530 l 512 530 l 302 0 z"},"O":{"x_min":0,"x_max":777,"ha":777,"o":"m 389 -18 q 235 -18 143 85 q 51 188 51 361 q 51 534 143 637 q 235 741 389 741 q 542 741 635 637 q 727 534 727 361 q 727 188 635 85 q 542 -18 389 -18 z m 389 59 q 497 59 557 139 q 618 219 618 362 q 618 504 557 584 q 497 664 389 664 q 281 664 220 584 q 160 504 160 362 q 160 219 220 139 q 281 59 389 59 z"},"(":{"x_min":0,"x_max":325,"ha":325,"o":"m 289 -78 l 289 -145 q 184 -73 122 51 q 60 174 60 313 q 60 453 122 576 q 184 699 289 771 l 289 705 q 217 626 187 537 q 156 447 156 313 q 156 180 187 90 q 217 0 289 -78 z"},"C":{"x_min":0,"x_max":692,"ha":692,"o":"m 636 37 q 529 -18 403 -18 q 234 -18 143 81 q 51 179 51 361 q 51 542 144 641 q 238 741 408 741 q 505 741 635 709 l 635 613 q 487 664 406 664 q 289 664 224 584 q 160 505 160 360 q 160 221 229 142 q 297 62 417 62 q 519 62 636 125 z"},"W":{"x_min":0,"x_max":855,"ha":855,"o":"m 187 0 l 1 723 l 100 723 l 248 152 l 384 723 l 482 723 l 611 160 l 771 723 l 854 723 l 651 0 l 549 0 l 422 557 l 289 0 z"},"A":{"x_min":0,"x_max":690,"ha":690,"o":"m 8 0 l 295 723 l 396 723 l 679 0 l 568 0 l 489 200 l 183 200 l 104 0 z m 213 276 l 459 276 l 336 588 z"},"f":{"x_min":0,"x_max":368,"ha":368,"o":"m 114 0 l 114 458 l 39 458 l 39 530 l 114 530 l 114 594 q 114 783 287 783 q 335 783 397 767 l 397 691 q 332 711 293 711 q 246 711 228 688 q 211 666 211 604 l 211 530 l 343 530 l 343 458 l 211 458 l 211 0 z"},"Q":{"x_min":0,"x_max":777,"ha":777,"o":"m 735 -145 q 564 -89 449 -13 q 403 -18 378 -18 q 233 -18 142 87 q 51 193 51 361 q 51 534 143 637 q 235 741 389 741 q 543 741 635 637 q 727 534 727 360 q 727 111 542 15 q 666 -40 800 -63 z m 389 59 q 497 59 557 139 q 618 219 618 361 q 618 504 557 584 q 497 664 389 664 q 281 664 220 584 q 160 504 160 362 q 160 219 220 139 q 281 59 389 59 z"},"w":{"x_min":0,"x_max":771,"ha":771,"o":"m 158 0 l 6 530 l 100 530 l 216 120 l 342 530 l 438 530 l 548 120 l 681 530 l 764 530 l 591 0 l 494 0 l 382 411 l 255 0 z"},"-":{"x_min":0,"x_max":579,"ha":579,"o":"m 72 265 l 72 325 l 506 325 l 506 265 z"},"E":{"x_min":0,"x_max":542,"ha":542,"o":"m 93 0 l 93 723 l 497 723 l 497 646 l 196 646 l 196 414 l 448 414 l 448 338 l 196 338 l 196 77 l 518 77 l 518 0 z"},"s":{"x_min":0,"x_max":510,"ha":510,"o":"m 77 19 l 77 107 q 171 60 241 60 q 282 60 310 83 q 337 105 337 139 q 337 188 260 220 l 204 244 q 80 296 80 393 q 80 462 129 502 q 178 542 263 542 q 308 542 373 530 l 393 526 l 393 446 q 312 470 265 470 q 223 470 198 451 q 172 433 172 402 q 172 359 243 329 l 289 310 q 368 276 400 240 q 433 203 433 147 q 433 78 378 33 q 323 -12 237 -12 q 171 -12 77 19 z"},">":{"x_min":0,"x_max":795,"ha":795,"o":"m 108 0 l 108 54 l 578 290 l 108 524 l 108 578 l 687 289 z"},"l":{"x_min":0,"x_max":289,"ha":289,"o":"m 96 0 l 96 771 l 192 771 l 192 0 z"},"8":{"x_min":0,"x_max":632,"ha":632,"o":"m 230 394 q 170 435 147 471 q 124 506 124 557 q 124 639 184 690 q 244 741 341 741 q 430 741 486 698 q 541 654 541 585 q 541 480 406 394 q 570 313 570 187 q 570 97 501 39 q 433 -18 326 -18 q 218 -18 152 36 q 86 90 86 178 q 86 308 230 394 z m 353 424 q 454 490 454 572 q 454 615 420 642 q 386 668 331 668 q 278 668 245 642 q 211 616 211 575 q 211 534 241 502 q 271 470 353 424 z m 282 354 q 224 310 203 276 q 183 243 183 193 q 183 131 223 93 q 263 54 328 54 q 391 54 431 87 q 471 120 471 172 q 471 214 446 243 q 421 272 351 314 z"},"\\":{"x_min":0,"x_max":524,"ha":524,"o":"m 416 -145 l 365 -145 l 108 723 l 159 723 z"},"e":{"x_min":0,"x_max":557,"ha":557,"o":"m 485 17 q 388 -12 319 -12 q 202 -12 128 66 q 54 144 54 268 q 54 388 119 465 q 185 542 286 542 q 382 542 435 474 q 487 405 487 279 l 487 250 l 152 250 q 173 61 337 61 q 397 61 485 93 z m 157 322 l 391 322 q 391 470 280 470 q 169 470 157 322 z"},"b":{"x_min":0,"x_max":629,"ha":629,"o":"m 96 -6 l 96 771 l 192 771 l 192 431 q 251 542 370 542 q 465 542 520 472 q 575 402 575 281 q 575 149 513 69 q 451 -12 349 -12 q 255 -12 192 60 l 181 -6 z m 192 126 q 267 60 334 60 q 400 60 437 115 q 473 171 473 271 q 473 458 350 458 q 269 458 192 371 z"},"%":{"x_min":0,"x_max":668,"ha":668,"o":"m 12 -18 l 581 741 l 656 741 l 87 -18 z m 160 361 q 89 361 47 410 q 6 459 6 542 q 6 625 47 674 q 89 723 160 723 q 230 723 271 674 q 313 625 313 542 q 313 459 271 410 q 230 361 160 361 z m 160 410 q 197 410 219 446 q 241 481 241 542 q 241 603 219 639 q 197 675 160 675 q 122 675 100 639 q 78 603 78 542 q 78 481 100 446 q 122 410 160 410 z m 509 0 q 438 0 397 49 q 355 98 355 181 q 355 264 397 312 q 438 361 509 361 q 580 361 621 312 q 663 264 663 181 q 663 98 621 49 q 580 0 509 0 z m 509 48 q 546 48 568 84 q 590 120 590 181 q 590 242 568 278 q 546 313 509 313 q 472 313 450 278 q 428 242 428 181 q 428 120 450 84 q 472 48 509 48 z"},"m":{"x_min":0,"x_max":934,"ha":934,"o":"m 96 0 l 96 530 l 192 530 l 192 431 q 263 542 373 542 q 479 542 518 431 q 586 542 696 542 q 766 542 804 501 q 843 460 843 386 l 843 0 l 747 0 l 747 371 q 747 461 675 461 q 600 461 518 355 l 518 0 l 421 0 l 421 371 q 421 462 348 462 q 275 462 192 355 l 192 0 z"},"#":{"x_min":0,"x_max":632,"ha":632,"o":"m 99 0 l 153 217 l 7 217 l 20 277 l 168 277 l 211 446 l 53 446 l 65 506 l 226 506 l 280 723 l 342 723 l 288 506 l 417 506 l 471 723 l 533 723 l 479 506 l 625 506 l 613 446 l 464 446 l 421 277 l 580 277 l 567 217 l 407 217 l 353 0 l 290 0 l 344 217 l 216 217 l 162 0 z m 231 277 l 359 277 l 402 446 l 273 446 z"},",":{"x_min":0,"x_max":316,"ha":316,"o":"m 98 -157 l 98 -121 q 145 -107 145 -10 l 145 0 l 98 0 l 98 121 l 218 121 l 218 16 q 218 -145 98 -157 z"},"n":{"x_min":0,"x_max":621,"ha":621,"o":"m 96 0 l 96 530 l 192 530 l 192 431 q 269 542 379 542 q 448 542 489 498 q 530 455 530 381 l 530 0 l 434 0 l 434 350 q 434 409 416 434 q 399 459 359 459 q 271 459 192 343 l 192 0 z"},"h":{"x_min":0,"x_max":621,"ha":621,"o":"m 96 0 l 96 771 l 192 771 l 192 431 q 269 542 379 542 q 448 542 489 498 q 530 455 530 381 l 530 0 l 434 0 l 434 350 q 434 409 416 434 q 399 459 359 459 q 271 459 192 343 l 192 0 z"},"z":{"x_min":0,"x_max":573,"ha":573,"o":"m 60 0 l 60 72 l 388 458 l 75 458 l 75 530 l 507 530 l 507 458 l 179 72 l 513 72 l 513 0 z"},"B":{"x_min":0,"x_max":575,"ha":575,"o":"m 93 0 l 93 723 l 281 723 q 389 723 447 682 q 505 641 505 563 q 505 501 466 452 q 428 403 356 376 q 534 322 534 181 q 534 117 495 68 q 465 30 423 15 q 381 0 306 0 z m 195 77 l 216 77 q 329 77 362 91 q 425 118 425 190 q 425 255 368 298 q 310 340 224 340 l 195 340 z m 195 405 l 228 405 q 310 405 355 440 q 400 476 400 541 q 400 646 235 646 l 195 646 z"},"K":{"x_min":0,"x_max":653,"ha":653,"o":"m 93 0 l 93 723 l 189 723 l 189 367 l 482 723 l 585 723 l 302 378 l 635 0 l 505 0 l 189 366 l 189 0 z"},"R":{"x_min":0,"x_max":632,"ha":632,"o":"m 93 0 l 93 723 l 312 723 q 416 723 471 677 q 527 631 527 543 q 527 475 489 421 q 450 367 381 338 l 622 0 l 496 0 l 291 306 l 195 306 l 195 0 z m 195 382 l 228 382 q 323 382 372 421 q 421 459 421 534 q 421 646 259 646 l 195 646 z"},"T":{"x_min":0,"x_max":632,"ha":632,"o":"m 265 0 l 265 646 l 9 646 l 9 723 l 624 723 l 624 646 l 368 646 l 368 0 z"},"P":{"x_min":0,"x_max":553,"ha":553,"o":"m 93 0 l 93 723 l 290 723 q 375 723 421 709 q 467 695 497 660 q 535 613 535 533 q 535 418 457 353 q 379 287 240 287 l 195 287 l 195 0 z m 195 365 l 236 365 q 328 365 377 407 q 427 449 427 526 q 427 590 388 618 q 349 646 258 646 l 195 646 z"},"|":{"x_min":0,"x_max":374,"ha":374,"o":"m 163 -145 l 163 771 l 211 771 l 211 -145 z"},"t":{"x_min":0,"x_max":374,"ha":374,"o":"m 333 0 q 288 -12 255 -12 q 182 -12 141 30 q 100 72 100 146 l 100 458 l 34 458 l 34 530 l 100 530 l 100 626 l 196 636 l 196 530 l 335 530 l 335 458 l 196 458 l 196 164 q 196 60 286 60 q 305 60 333 66 z"},"M":{"x_min":0,"x_max":861,"ha":861,"o":"m 93 0 l 93 723 l 235 723 l 436 164 l 642 723 l 769 723 l 769 0 l 673 0 l 673 588 l 474 48 l 375 48 l 181 589 l 181 0 z"},"g":{"x_min":0,"x_max":624,"ha":624,"o":"m 98 -176 l 109 -93 q 193 -132 274 -132 q 437 -132 437 40 l 437 124 q 412 71 365 42 q 319 12 263 12 q 167 12 110 81 q 54 150 54 269 q 54 390 118 466 q 182 542 284 542 q 373 542 437 470 l 437 530 l 533 530 l 533 145 q 533 20 520 -40 q 507 -100 472 -138 q 409 -205 275 -205 q 183 -205 98 -176 z m 437 184 l 437 404 q 373 470 298 470 q 232 470 194 417 q 157 363 157 269 q 157 96 279 96 q 363 96 437 184 z"},"j":{"x_min":0,"x_max":304,"ha":304,"o":"m -75 -180 l -75 -104 q -7 -132 28 -132 q 68 -132 90 -111 q 104 -96 108 -78 q 112 -59 112 0 l 112 530 l 208 530 l 208 0 q 208 -205 36 -205 q -16 -205 -75 -180 z m 112 626 l 112 723 l 208 723 l 208 626 z"},"i":{"x_min":0,"x_max":289,"ha":289,"o":"m 96 0 l 96 530 l 192 530 l 192 0 z m 96 626 l 96 723 l 192 723 l 192 626 z"},"y":{"x_min":0,"x_max":522,"ha":522,"o":"m 127 -193 l 213 0 l 8 530 l 112 530 l 264 131 l 426 530 l 517 530 l 227 -193 z"},"@":{"x_min":0,"x_max":858,"ha":858,"o":"m 534 21 q 446 -18 361 -18 q 224 -18 135 67 q 45 151 45 281 q 45 447 165 584 q 228 657 319 699 q 409 741 502 741 q 638 741 730 653 q 822 565 822 435 q 822 314 749 229 q 675 145 570 145 q 488 145 488 201 q 488 221 499 252 l 518 313 l 512 313 q 424 145 323 145 q 281 145 255 174 q 229 204 229 254 q 229 323 264 401 q 299 479 351 523 q 411 575 485 575 q 500 575 524 574 q 548 572 562 572 l 629 572 l 567 262 q 564 246 564 231 q 564 199 602 199 q 667 199 717 268 q 768 337 768 426 q 768 539 690 613 q 613 687 495 687 q 340 687 220 565 q 100 443 100 286 q 100 176 175 106 q 250 36 369 36 q 446 36 516 71 z m 524 407 l 543 502 q 498 518 465 518 q 416 518 385 491 q 352 462 328 398 q 304 335 304 274 q 304 205 345 205 q 375 205 424 260 q 473 315 524 407 z"},".":{"x_min":0,"x_max":316,"ha":316,"o":"m 98 0 l 98 121 l 218 121 l 218 0 z"},"p":{"x_min":0,"x_max":629,"ha":629,"o":"m 96 -193 l 96 530 l 192 530 l 192 431 q 251 542 370 542 q 465 542 520 472 q 575 402 575 281 q 575 149 513 69 q 451 -12 349 -12 q 255 -12 192 60 l 192 -193 z m 192 126 q 267 60 334 60 q 400 60 437 115 q 473 171 473 271 q 473 458 350 458 q 269 458 192 371 z"},"X":{"x_min":0,"x_max":626,"ha":626,"o":"m 8 0 l 248 363 l 20 723 l 141 723 l 314 450 l 497 723 l 594 723 l 363 374 l 600 0 l 479 0 l 295 287 l 105 0 z"},"*":{"x_min":0,"x_max":482,"ha":482,"o":"m 406 629 l 428 561 l 280 528 l 282 536 q 282 556 268 568 z m 379 409 l 321 367 l 244 497 q 269 500 278 522 z m 162 367 l 103 409 l 204 522 q 213 500 238 497 z m 54 561 l 76 629 l 215 568 q 201 556 201 536 l 202 528 z m 205 723 l 277 723 l 262 572 q 253 578 241 578 q 229 578 220 572 z"},"Y":{"x_min":0,"x_max":623,"ha":623,"o":"m 250 0 l 250 302 l 8 723 l 125 723 l 313 396 l 515 723 l 610 723 l 352 304 l 352 0 z"},"c":{"x_min":0,"x_max":512,"ha":512,"o":"m 464 16 q 371 -12 303 -12 q 196 -12 125 67 q 54 147 54 268 q 54 397 124 470 q 194 542 320 542 q 382 542 458 525 l 458 444 q 377 468 326 468 q 251 468 207 413 q 163 357 163 265 q 163 176 208 121 q 254 65 329 65 q 395 65 464 99 z"},"!":{"x_min":0,"x_max":316,"ha":316,"o":"m 110 0 l 110 96 l 206 96 l 206 0 z m 122 193 l 110 578 l 110 723 l 206 723 l 206 578 l 194 193 z"},"/":{"x_min":0,"x_max":524,"ha":524,"o":"m 108 -145 l 365 723 l 416 723 l 159 -145 z"},"[":{"x_min":0,"x_max":325,"ha":325,"o":"m 96 -145 l 96 771 l 289 771 l 289 699 l 181 699 l 181 -72 l 289 -72 l 289 -145 z"},"6":{"x_min":0,"x_max":632,"ha":632,"o":"m 172 375 q 241 464 345 464 q 440 464 500 401 q 561 338 561 240 q 561 127 493 55 q 425 -18 321 -18 q 202 -18 134 78 q 67 175 67 345 q 67 575 185 682 q 249 741 361 741 q 427 741 523 714 l 523 630 q 421 669 355 669 q 172 669 172 375 z m 464 221 q 464 301 427 348 q 390 395 325 395 q 264 395 220 354 q 176 312 176 255 q 176 164 218 109 q 259 54 328 54 q 391 54 427 99 q 464 144 464 221 z"},"r":{"x_min":0,"x_max":409,"ha":409,"o":"m 96 0 l 96 530 l 192 530 l 192 431 q 250 542 358 542 q 373 542 389 540 l 389 450 q 364 458 345 458 q 254 458 192 350 l 192 0 z"},"2":{"x_min":0,"x_max":632,"ha":632,"o":"m 83 0 l 83 84 q 125 183 253 298 l 308 348 q 415 444 415 539 q 415 599 378 634 q 342 668 278 668 q 203 668 101 610 l 101 695 q 197 741 292 741 q 394 741 455 686 q 517 631 517 541 q 517 476 486 426 q 455 375 370 304 l 333 272 q 217 174 199 84 l 513 84 l 513 0 z"},"{":{"x_min":0,"x_max":325,"ha":325,"o":"m 12 350 l 36 350 q 111 350 111 428 q 111 461 103 497 l 94 539 q 84 581 84 621 q 84 686 131 726 q 178 766 259 771 l 259 699 l 246 699 q 212 699 190 681 q 168 664 168 638 q 168 626 175 592 l 183 542 q 188 510 188 465 q 188 374 117 313 q 188 252 188 161 q 188 117 183 84 l 175 35 q 168 0 168 -12 q 168 -38 191 -55 q 213 -72 246 -72 l 259 -72 l 259 -145 q 177 -140 131 -99 q 84 -59 84 6 q 84 46 94 87 l 103 130 q 110 165 110 199 q 110 277 36 277 l 12 277 z"},"9":{"x_min":0,"x_max":632,"ha":632,"o":"m 114 4 l 114 86 q 206 54 270 54 q 360 54 410 131 q 461 207 461 343 q 388 253 294 253 q 203 253 140 320 q 76 387 76 484 q 76 595 144 668 q 211 741 314 741 q 432 741 500 646 q 567 552 567 388 q 567 283 535 191 q 502 99 447 48 q 376 -18 261 -18 q 204 -18 114 4 z m 172 500 q 172 418 210 370 q 248 322 312 322 q 373 322 416 364 q 459 405 459 464 q 459 556 418 613 q 376 669 308 669 q 245 669 208 624 q 172 579 172 500 z"}," ":{"x_min":0,"x_max":316,"ha":316,"o":""},"I":{"x_min":0,"x_max":288,"ha":288,"o":"m 93 0 l 93 723 l 195 723 l 195 0 z"},"H":{"x_min":0,"x_max":735,"ha":735,"o":"m 93 0 l 93 723 l 196 723 l 196 418 l 540 418 l 540 723 l 642 723 l 642 0 l 540 0 l 540 341 l 196 341 l 196 0 z"},"4":{"x_min":0,"x_max":632,"ha":632,"o":"m 376 0 l 376 205 l 51 205 l 51 277 l 376 723 l 467 723 l 467 283 l 563 283 l 563 205 l 467 205 l 467 0 z m 146 283 l 383 283 l 383 604 z"},"~":{"x_min":0,"x_max":632,"ha":632,"o":"m 51 217 q 51 288 89 333 q 126 377 186 377 q 225 377 291 343 l 343 315 l 406 282 q 428 271 450 271 q 476 271 493 295 q 509 319 509 358 l 509 361 l 582 361 q 571 199 452 199 q 408 199 332 238 l 277 266 l 219 296 q 202 305 185 305 q 158 305 141 281 q 124 256 124 217 z"},"D":{"x_min":0,"x_max":749,"ha":749,"o":"m 93 0 l 93 723 l 333 723 q 441 723 507 699 q 573 675 622 618 q 698 527 698 378 q 698 211 608 107 q 560 50 495 25 q 431 0 335 0 z m 196 77 l 327 77 q 468 77 526 152 q 589 233 589 369 q 589 496 527 569 q 490 613 438 630 q 385 646 280 646 l 196 646 z"},"^":{"x_min":0,"x_max":632,"ha":632,"o":"m 316 561 l 132 193 l 51 193 l 316 723 l 582 193 l 500 193 z"},"0":{"x_min":0,"x_max":632,"ha":632,"o":"m 316 -18 q 203 -18 133 86 q 63 190 63 361 q 63 532 133 636 q 203 741 316 741 q 431 741 500 637 q 569 533 569 361 q 569 190 500 86 q 431 -18 316 -18 z m 316 54 q 467 54 467 361 q 467 668 316 668 q 166 668 166 361 q 166 54 316 54 z"},"F":{"x_min":0,"x_max":536,"ha":536,"o":"m 93 0 l 93 723 l 497 723 l 497 646 l 196 646 l 196 404 l 449 404 l 449 328 l 196 328 l 196 0 z"},"`":{"x_min":0,"x_max":614,"ha":614,"o":"m 422 626 l 350 626 l 193 783 l 304 783 z"},"k":{"x_min":0,"x_max":584,"ha":584,"o":"m 96 0 l 96 771 l 192 771 l 192 273 l 417 530 l 521 530 l 306 283 l 565 0 l 442 0 l 192 272 l 192 0 z"},"u":{"x_min":0,"x_max":621,"ha":621,"o":"m 428 0 l 428 100 q 351 -12 242 -12 q 172 -12 131 31 q 90 75 90 149 l 90 530 l 187 530 l 187 181 q 187 121 204 96 q 221 71 262 71 q 350 71 428 187 l 428 530 l 524 530 l 524 0 z"},"]":{"x_min":0,"x_max":325,"ha":325,"o":"m 229 771 l 229 -145 l 36 -145 l 36 -72 l 145 -72 l 145 699 l 36 699 l 36 771 z"},"U":{"x_min":0,"x_max":693,"ha":693,"o":"m 87 723 l 190 723 l 190 267 q 190 158 230 108 q 271 59 358 59 q 444 59 480 105 q 516 152 516 263 l 516 723 l 606 723 l 606 265 q 606 170 587 119 q 569 68 521 30 q 460 -18 354 -18 q 217 -18 152 51 q 87 121 87 268 z"},"o":{"x_min":0,"x_max":614,"ha":614,"o":"m 307 -12 q 190 -12 122 62 q 54 137 54 265 q 54 393 122 468 q 190 542 307 542 q 424 542 492 468 q 560 393 560 265 q 560 137 492 62 q 424 -12 307 -12 z m 307 60 q 379 60 418 114 q 458 167 458 265 q 458 363 418 416 q 379 470 307 470 q 235 470 196 416 q 157 363 157 265 q 157 167 196 114 q 235 60 307 60 z"},"N":{"x_min":0,"x_max":739,"ha":739,"o":"m 93 0 l 93 723 l 194 723 l 558 165 l 558 723 l 646 723 l 646 0 l 545 0 l 181 558 l 181 0 z"},"+":{"x_min":0,"x_max":795,"ha":795,"o":"m 374 0 l 374 265 l 108 265 l 108 313 l 374 313 l 374 578 l 422 578 l 422 313 l 687 313 l 687 265 l 422 265 l 422 0 z"},"G":{"x_min":0,"x_max":723,"ha":723,"o":"m 636 20 q 505 -18 407 -18 q 235 -18 143 80 q 51 178 51 361 q 51 542 144 641 q 238 741 407 741 q 516 741 635 708 l 635 613 q 486 664 406 664 q 289 664 224 585 q 160 505 160 361 q 160 218 229 138 q 298 59 423 59 q 475 59 534 77 l 534 312 l 636 312 z"},"q":{"x_min":0,"x_max":629,"ha":629,"o":"m 437 -193 l 437 100 q 378 -12 260 -12 q 164 -12 109 58 q 54 127 54 249 q 54 381 116 461 q 179 542 280 542 q 375 542 437 470 l 437 530 l 533 530 l 533 -193 z m 437 404 q 362 470 295 470 q 229 470 193 415 q 157 359 157 258 q 157 72 280 72 q 360 72 437 160 z"},"d":{"x_min":0,"x_max":629,"ha":629,"o":"m 437 0 l 437 100 q 378 -12 260 -12 q 164 -12 109 58 q 54 127 54 249 q 54 381 116 461 q 179 542 280 542 q 375 542 437 470 l 437 771 l 533 771 l 533 0 z m 437 404 q 362 470 295 470 q 229 470 193 415 q 157 359 157 258 q 157 72 280 72 q 360 72 437 160 z"},"1":{"x_min":0,"x_max":632,"ha":632,"o":"m 262 0 l 262 650 l 147 650 l 147 711 l 358 729 l 358 0 z"},"5":{"x_min":0,"x_max":632,"ha":632,"o":"m 122 -3 l 122 83 q 193 54 258 54 q 330 54 370 96 q 411 138 411 212 q 411 291 354 333 q 296 375 187 375 q 162 375 134 371 l 134 723 l 500 723 l 500 639 l 218 639 l 218 448 q 357 448 436 384 q 514 320 514 207 q 514 102 443 42 q 372 -18 247 -18 q 191 -18 122 -3 z"}}}
